<?xml version="1.0" encoding="UTF-8"?>
<svg xmlns="http://www.w3.org/2000/svg" xmlns:xlink="http://www.w3.org/1999/xlink" width="100px" height="80px" viewBox="0 0 99 80" version="1.1">
<g id="surface1">
<path style=" stroke:none;fill-rule:nonzero;fill:rgb(88.627452%,70.19608%,38.039216%);fill-opacity:1;" d="M 1.226562 75.660156 L 1.226562 68.671875 L 1.089844 67.574219 L 7.417969 67.574219 C 8.152344 67.574219 8.714844 67.664062 9.105469 67.847656 C 9.507812 68.03125 9.785156 68.304688 9.9375 68.671875 C 10.09375 69.03125 10.171875 69.480469 10.171875 70.019531 L 10.171875 73.199219 C 10.171875 73.75 10.09375 74.207031 9.9375 74.574219 C 9.792969 74.933594 9.519531 75.203125 9.121094 75.386719 C 8.730469 75.570312 8.160156 75.660156 7.417969 75.660156 Z M 3.027344 74.339844 L 7.308594 74.339844 C 8.007812 74.339844 8.363281 74.015625 8.371094 73.363281 L 8.371094 69.855469 C 8.371094 69.589844 8.292969 69.367188 8.140625 69.183594 C 7.984375 68.988281 7.707031 68.894531 7.308594 68.894531 L 3.027344 68.894531 Z M 12.082031 75.660156 L 16.074219 67.574219 L 18.761719 67.574219 L 22.742188 75.660156 L 20.644531 75.660156 L 19.839844 73.914062 L 14.957031 73.914062 L 14.070312 75.660156 Z M 15.449219 72.566406 L 19.335938 72.566406 L 17.464844 68.8125 L 17.328125 68.8125 Z M 26.300781 75.660156 L 26.289062 68.878906 L 22.742188 68.878906 L 22.742188 67.558594 L 31.660156 67.558594 L 31.660156 68.878906 L 28.101562 68.878906 L 28.101562 75.660156 Z M 31.664062 75.660156 L 35.65625 67.574219 L 38.34375 67.574219 L 42.324219 75.660156 L 40.226562 75.660156 L 39.421875 73.914062 L 34.539062 73.914062 L 33.652344 75.660156 Z M 35.03125 72.566406 L 38.917969 72.566406 L 37.046875 68.8125 L 36.910156 68.8125 Z M 35.03125 72.566406 "/>
<path style=" stroke:none;fill-rule:nonzero;fill:rgb(83.529413%,83.529413%,83.529413%);fill-opacity:1;" d="M 49.277344 75.660156 L 49.277344 68.671875 L 49.140625 67.574219 L 51.214844 67.574219 L 54.292969 73.074219 L 57.484375 67.574219 L 59.324219 67.574219 L 59.324219 75.660156 L 57.523438 75.660156 L 57.523438 70.53125 L 57.375 70.53125 L 56.84375 71.726562 L 55.125 74.835938 L 53.476562 74.835938 L 51.757812 71.726562 L 51.214844 70.53125 L 51.078125 70.53125 L 51.078125 75.660156 Z M 65.230469 75.660156 C 64.59375 75.660156 64.09375 75.570312 63.730469 75.386719 C 63.367188 75.203125 63.109375 74.925781 62.953125 74.5625 C 62.808594 74.195312 62.734375 73.738281 62.734375 73.199219 L 62.734375 70.019531 C 62.734375 69.488281 62.808594 69.042969 62.953125 68.6875 C 63.101562 68.320312 63.355469 68.042969 63.71875 67.863281 C 64.082031 67.667969 64.585938 67.574219 65.230469 67.574219 L 69.210938 67.574219 C 69.847656 67.574219 70.34375 67.667969 70.699219 67.863281 C 71.0625 68.042969 71.316406 68.320312 71.460938 68.6875 C 71.617188 69.042969 71.695312 69.488281 71.695312 70.019531 L 71.695312 73.199219 C 71.695312 74.007812 71.515625 74.621094 71.160156 75.042969 C 70.808594 75.453125 70.15625 75.660156 69.210938 75.660156 Z M 65.625 74.339844 L 68.832031 74.339844 C 69.167969 74.339844 69.425781 74.253906 69.609375 74.078125 C 69.796875 73.90625 69.894531 73.667969 69.894531 73.363281 L 69.894531 69.855469 C 69.894531 69.589844 69.796875 69.367188 69.609375 69.183594 C 69.417969 68.988281 69.15625 68.894531 68.832031 68.894531 L 65.625 68.894531 C 65.300781 68.894531 65.035156 68.980469 64.835938 69.15625 C 64.636719 69.328125 64.535156 69.5625 64.535156 69.855469 L 64.535156 73.363281 C 64.535156 73.675781 64.632812 73.917969 64.820312 74.09375 C 65.023438 74.257812 65.289062 74.339844 65.625 74.339844 Z M 75.238281 75.660156 L 75.238281 68.671875 L 75.101562 67.574219 L 77.0625 67.574219 L 81.699219 72.46875 L 82.230469 73.210938 L 82.378906 73.210938 L 82.378906 67.574219 L 84.179688 67.574219 L 84.179688 75.660156 L 82.449219 75.660156 L 77.703125 70.679688 L 77.171875 70.035156 L 77.035156 70.035156 L 77.035156 75.660156 Z M 96.273438 75.800781 C 95.828125 75.800781 95.445312 75.707031 95.117188 75.523438 C 94.789062 75.339844 94.464844 75.09375 94.148438 74.78125 C 93.804688 74.414062 93.386719 73.992188 92.894531 73.515625 C 92.667969 73.277344 92.433594 73.078125 92.199219 72.921875 C 91.960938 72.769531 91.695312 72.648438 91.394531 72.566406 C 91.105469 72.484375 90.738281 72.441406 90.304688 72.441406 L 89.664062 72.441406 L 89.664062 75.660156 L 87.863281 75.660156 L 87.863281 68.671875 L 87.726562 67.574219 L 89.664062 67.574219 L 89.664062 71.09375 L 90.425781 71.09375 C 90.609375 71.09375 90.757812 71.070312 90.875 71.027344 C 90.996094 70.980469 91.105469 70.90625 91.203125 70.804688 C 91.457031 70.546875 91.75 70.226562 92.078125 69.84375 C 92.402344 69.457031 92.722656 69.0625 93.03125 68.660156 C 93.347656 68.246094 93.621094 67.882812 93.847656 67.574219 L 96.058594 67.574219 L 95.5 68.398438 C 95.242188 68.664062 94.972656 68.953125 94.679688 69.265625 C 94.390625 69.578125 94.101562 69.882812 93.820312 70.1875 C 93.539062 70.480469 93.285156 70.742188 93.058594 70.96875 C 92.832031 71.191406 92.664062 71.351562 92.554688 71.453125 C 92.796875 71.535156 93.023438 71.640625 93.222656 71.769531 C 93.429688 71.898438 93.683594 72.085938 93.984375 72.332031 C 94.210938 72.515625 94.429688 72.703125 94.640625 72.894531 C 94.855469 73.089844 95.109375 73.316406 95.390625 73.585938 C 95.707031 73.878906 96.007812 74.09375 96.289062 74.230469 C 96.570312 74.367188 96.808594 74.457031 96.996094 74.492188 C 97.199219 74.527344 97.324219 74.546875 97.378906 74.546875 L 97.105469 75.660156 C 97.078125 75.6875 96.996094 75.714844 96.863281 75.742188 C 96.726562 75.78125 96.53125 75.800781 96.273438 75.800781 Z M 96.273438 75.800781 "/>
<path style=" stroke:none;fill-rule:evenodd;fill:rgb(83.529413%,83.529413%,83.529413%);fill-opacity:1;" d="M 46.875 0.101562 C 45.71875 0.308594 43.570312 1.058594 42.367188 1.671875 C 39.996094 2.886719 37.878906 4.820312 36.273438 7.25 C 34.132812 10.484375 33.234375 15.730469 34.230469 19.183594 C 34.683594 20.761719 33.335938 20.808594 34.230469 19.871094 L 37.113281 19.871094 L 37.113281 13.570312 L 37.679688 11.921875 C 37.988281 11.015625 38.519531 9.804688 38.855469 9.222656 C 40.84375 5.785156 44.804688 3.421875 48.972656 3.1875 C 51.648438 3.035156 54.785156 4.015625 56.980469 5.695312 C 59.089844 7.304688 60.363281 9.132812 61.320312 11.921875 L 61.886719 13.570312 L 61.886719 19.914062 L 64.46875 19.871094 C 64.769531 20.820312 64.234375 20.761719 64.757812 19.203125 C 65.144531 18.0625 65.234375 14.851562 64.929688 13.085938 C 64.394531 9.992188 63.054688 7.222656 61.058594 5.074219 C 59.570312 3.472656 58.296875 2.515625 56.449219 1.609375 C 54 0.40625 52.632812 0.0703125 49.953125 0.0078125 C 48.707031 -0.0195312 47.320312 0.0234375 46.875 0.101562 Z M 47.308594 7.386719 C 45.132812 8.097656 43.285156 9.640625 42.371094 11.515625 C 41.742188 12.808594 41.578125 13.578125 41.574219 15.269531 C 41.566406 17.074219 41.933594 18.28125 42.914062 19.6875 C 45.875 23.9375 51.558594 24.464844 55.152344 20.820312 C 56.792969 19.160156 57.429688 17.574219 57.429688 15.167969 C 57.429688 12.914062 56.828125 11.300781 55.390625 9.707031 C 54.4375 8.652344 53.121094 7.789062 51.875 7.402344 C 50.613281 7.007812 48.488281 7 47.308594 7.386719 Z M 38.925781 25.214844 C 36.289062 25.800781 33.636719 28.300781 30.78125 32.898438 C 29.046875 35.683594 29.28125 36.492188 32.238281 38 C 33.828125 38.8125 34.707031 38.90625 35.488281 38.34375 C 35.757812 38.152344 36.472656 37.261719 37.074219 36.367188 C 39.195312 33.210938 40.175781 32.667969 42.03125 33.605469 C 42.722656 33.953125 44.589844 35.484375 46.40625 37.195312 C 47.195312 37.9375 48.65625 39.277344 49.652344 40.167969 C 50.648438 41.0625 52.042969 42.386719 52.75 43.109375 C 54.167969 44.570312 54.867188 45.019531 55.726562 45.015625 C 56.453125 45.011719 57.582031 44.480469 58.609375 43.660156 C 59.972656 42.570312 60.292969 41.660156 59.742188 40.472656 C 59.371094 39.671875 53.691406 33.917969 50.933594 31.546875 C 46.328125 27.582031 44.3125 26.136719 42.550781 25.523438 C 41.515625 25.164062 39.8125 25.019531 38.925781 25.214844 Z M 57.734375 25.164062 C 55.226562 25.648438 53.050781 27.269531 53.050781 28.644531 C 53.050781 29.269531 53.554688 30.105469 54.496094 31.046875 C 55.753906 32.304688 56.300781 32.53125 58.089844 32.53125 C 58.980469 32.53125 59.746094 32.609375 60.046875 32.738281 C 60.738281 33.027344 61.597656 33.988281 62.609375 35.605469 C 63.832031 37.5625 64.136719 37.933594 64.769531 38.234375 C 66.140625 38.890625 68.824219 37.648438 69.214844 36.175781 C 69.4375 35.355469 69.246094 34.726562 68.261719 33.050781 C 66.054688 29.285156 63.320312 26.425781 61.078125 25.53125 C 60.289062 25.21875 58.476562 25.019531 57.734375 25.164062 Z M 27.03125 40.363281 C 26.144531 40.707031 25.285156 41.375 23.859375 42.832031 C 20.894531 45.855469 19.027344 49.355469 18.398438 53.078125 C 18.066406 55.039062 18.054688 60.3125 18.382812 61.425781 C 18.808594 62.863281 19.976562 63.390625 22.476562 63.261719 C 24.820312 63.144531 25.375 62.574219 25.253906 60.398438 C 25.042969 56.550781 25.261719 54.53125 26.15625 52.136719 C 26.585938 50.992188 27.535156 49.578125 28.097656 49.242188 C 28.636719 48.925781 29.609375 48.898438 30.285156 49.183594 C 30.554688 49.296875 34.238281 51.703125 38.476562 54.535156 C 47.398438 60.5 49.878906 62.09375 51.238281 62.746094 L 52.21875 63.214844 L 55.867188 63.265625 C 59.949219 63.324219 61.066406 63.195312 61.441406 62.613281 C 61.710938 62.203125 61.546875 61.613281 61.007812 61.027344 C 60.628906 60.617188 53.742188 55.890625 51.386719 54.429688 C 50.515625 53.886719 45.621094 50.648438 40.511719 47.226562 C 35.402344 43.808594 30.855469 40.839844 30.40625 40.628906 C 29.402344 40.167969 27.859375 40.042969 27.03125 40.363281 Z M 69.367188 40.277344 C 69.15625 40.347656 68.691406 40.554688 68.332031 40.742188 C 67.289062 41.277344 55.261719 49.34375 54.585938 49.960938 C 53.792969 50.683594 53.5625 51.351562 53.855469 52.0625 C 54.136719 52.738281 54.6875 53.253906 55.996094 54.058594 C 57.824219 55.183594 58.753906 55.328125 60.085938 54.703125 C 60.507812 54.507812 62.480469 53.25 64.46875 51.914062 C 68.488281 49.210938 68.621094 49.128906 69.332031 48.96875 C 70.984375 48.589844 72.519531 50.429688 73.398438 53.839844 C 73.789062 55.355469 73.898438 57.421875 73.75 60.398438 C 73.640625 62.582031 74.183594 63.144531 76.523438 63.261719 C 79.023438 63.390625 80.195312 62.863281 80.617188 61.425781 C 80.9375 60.332031 80.9375 55.015625 80.613281 53.148438 C 79.878906 48.902344 77.59375 44.898438 74.171875 41.863281 C 72.785156 40.628906 71.976562 40.238281 70.726562 40.191406 C 70.183594 40.171875 69.574219 40.210938 69.367188 40.277344 Z M 69.367188 40.277344 "/>
<path style=" stroke:none;fill-rule:nonzero;fill:rgb(88.627452%,70.19608%,38.039216%);fill-opacity:1;" d="M 57.679688 14.972656 C 57.679688 10.386719 53.996094 6.667969 49.449219 6.667969 C 44.902344 6.667969 41.214844 10.386719 41.214844 14.972656 C 41.214844 19.5625 44.902344 23.28125 49.449219 23.28125 C 53.996094 23.28125 57.679688 19.5625 57.679688 14.972656 Z M 57.679688 14.972656 "/>
<path style=" stroke:none;fill-rule:nonzero;fill:rgb(11.764706%,11.764706%,11.764706%);fill-opacity:1;" d="M 33.347656 19.894531 L 34.398438 19.894531 L 34.398438 20.636719 L 33.347656 20.636719 Z M 33.347656 19.894531 "/>
</g>
</svg>
